<svg xmlns="http://www.w3.org/2000/svg" viewBox="0 0 400 300" fill="none">
  <defs>
    <linearGradient id="party" x1="0%" y1="0%" x2="100%" y2="100%">
      <stop offset="0%" style="stop-color:#ff6b9d"/>
      <stop offset="50%" style="stop-color:#c44569"/>
      <stop offset="100%" style="stop-color:#40407a"/>
    </linearGradient>
    <radialGradient id="disco" cx="50%" cy="50%" r="50%">
      <stop offset="0%" style="stop-color:#ffd700;stop-opacity:0.8"/>
      <stop offset="100%" style="stop-color:#ff6b9d;stop-opacity:0.3"/>
    </radialGradient>
  </defs>
  
  <!-- Background -->
  <rect width="400" height="300" fill="url(#party)" opacity="0.1" rx="20"/>
  
  <!-- Disco ball -->
  <circle cx="200" cy="80" r="25" fill="url(#disco)"/>
  <g stroke="#ffd700" stroke-width="1" opacity="0.6">
    <line x1="185" y1="65" x2="215" y2="95"/>
    <line x1="215" y1="65" x2="185" y2="95"/>
    <line x1="200" y1="55" x2="200" y2="105"/>
    <line x1="175" y1="80" x2="225" y2="80"/>
  </g>
  
  <!-- Party people -->
  <g transform="translate(80, 150)">
    <!-- Person 1 -->
    <circle cx="40" cy="30" r="18" fill="#ff6b9d"/>
    <ellipse cx="40" cy="70" rx="15" ry="25" fill="#ff6b9d"/>
    <ellipse cx="25" cy="60" rx="6" ry="12" fill="#ff6b9d" transform="rotate(-45 25 60)"/>
    <ellipse cx="55" cy="60" rx="6" ry="12" fill="#ff6b9d" transform="rotate(45 55 60)"/>
    
    <!-- Person 2 -->
    <circle cx="120" cy="25" r="20" fill="#c44569"/>
    <ellipse cx="120" cy="70" rx="18" ry="28" fill="#c44569"/>
    <ellipse cx="102" cy="55" rx="7" ry="15" fill="#c44569" transform="rotate(-30 102 55)"/>
    <ellipse cx="138" cy="55" rx="7" ry="15" fill="#c44569" transform="rotate(30 138 55)"/>
    
    <!-- Person 3 -->
    <circle cx="200" cy="35" r="16" fill="#40407a"/>
    <ellipse cx="200" cy="70" rx="14" ry="22" fill="#40407a"/>
    <ellipse cx="186" cy="60" rx="5" ry="10" fill="#40407a" transform="rotate(-20 186 60)"/>
    <ellipse cx="214" cy="60" rx="5" ry="10" fill="#40407a" transform="rotate(20 214 60)"/>
  </g>
  
  <!-- Confetti -->
  <g opacity="0.7">
    <rect x="50" y="50" width="4" height="8" fill="#ffd700" transform="rotate(45 52 54)"/>
    <rect x="350" y="70" width="3" height="6" fill="#ff6b9d" transform="rotate(-30 351.5 73)"/>
    <rect x="100" y="120" width="5" height="10" fill="#c44569" transform="rotate(60 102.5 125)"/>
    <rect x="300" y="180" width="4" height="8" fill="#40407a" transform="rotate(-45 302 184)"/>
    <rect x="150" y="40" width="3" height="6" fill="#ffd700" transform="rotate(30 151.5 43)"/>
    <rect x="250" y="250" width="4" height="8" fill="#ff6b9d" transform="rotate(-60 252 254)"/>
  </g>
  
  <!-- Light rays -->
  <g stroke="#ffd700" stroke-width="2" opacity="0.3">
    <line x1="200" y1="80" x2="50" y2="150"/>
    <line x1="200" y1="80" x2="350" y2="150"/>
    <line x1="200" y1="80" x2="100" y2="250"/>
    <line x1="200" y1="80" x2="300" y2="250"/>
  </g>
</svg>
